<svg width="400" height="68" viewBox="0 0 400 68" fill="none" xmlns="http://www.w3.org/2000/svg">
<path d="M8.74869 1.12604C127.015 6.23134 245.983 8.37498 397.27 9.78809M5.17415 1.39593C92.341 5.05456 180.482 5.95769 397.26 9.5581M398.468 8.16033C399.217 29.5108 399.649 55.8463 396.108 65.3728M394.342 9.36341C393.326 22.0994 395.348 36.636 393.589 65.9297M395.911 66.9877C259.082 59.9348 127.804 60.1874 6.06407 59.0765M393.813 66.6065C270.417 66.3413 140.324 64.0034 2.95439 58.4178M6.66294 58.2772C-0.995743 42.0256 4.85527 27.2081 1.53522 1.51252M1.71771 58.676C4.77851 35.7961 9.50457 13.9779 6.95757 1.48978" stroke="black" stroke-width="1.5" stroke-linecap="round"/>
<path d="M8.74869 1.12604C127.015 6.23134 245.983 8.37498 397.27 9.78809M5.17415 1.39593C92.341 5.05456 180.482 5.95769 397.26 9.5581M398.468 8.16033C399.217 29.5108 399.649 55.8463 396.108 65.3728M394.342 9.36341C393.326 22.0994 395.348 36.636 393.589 65.9297M395.911 66.9877C259.082 59.9348 127.804 60.1874 6.06407 59.0765M393.813 66.6065C270.417 66.3413 140.324 64.0034 2.95439 58.4178M6.66294 58.2772C-0.995743 42.0256 4.85527 27.2081 1.53522 1.51252M1.71771 58.676C4.77851 35.7961 9.50457 13.9779 6.95757 1.48978" stroke="url(#paint0_linear_128_1709)" stroke-width="1.5" stroke-linecap="round"/>
<defs>
<linearGradient id="paint0_linear_128_1709" x1="232.367" y1="90.0245" x2="216.733" y2="-27.6004" gradientUnits="userSpaceOnUse">
<stop stop-color="#1355FF"/>
<stop offset="1" stop-color="#6C95FF"/>
</linearGradient>
</defs>
</svg>
