<svg width="59" height="78" viewBox="0 0 59 78" fill="none" xmlns="http://www.w3.org/2000/svg">
<path d="M14.8903 57.0251C13.7466 57.77 12.6621 58.6032 11.6468 59.5164C11.3839 59.7658 11.1171 60.0144 10.8565 60.2694C10.6042 60.5338 10.3551 60.8014 10.1146 61.0751C9.09427 62.2788 8.15901 63.5718 7.23802 64.889L5.86367 66.8801C5.40531 67.5461 4.95129 68.2197 4.47465 68.876L4.46762 68.8857C4.30367 69.1114 4.05668 69.2628 3.78111 69.3065C3.50563 69.3501 3.22407 69.282 2.99837 69.1179C2.85649 69.0138 2.74279 68.8758 2.66729 68.7174C2.59195 68.5581 2.5572 68.383 2.56645 68.2065L2.69727 65.9267C2.82442 63.4687 2.95322 61.0075 3.09835 58.5428C3.24438 56.0783 3.40599 53.6101 3.63379 51.1356C3.71275 50.3876 3.8324 49.6445 3.99224 48.9096C4.13246 48.2101 4.40947 47.7783 4.71767 47.533C5.16902 47.1768 5.53998 47.6464 5.53731 48.6361C5.53044 49.2889 5.48484 49.9407 5.40069 50.5881C5.06785 53.5626 4.92662 56.5562 4.97821 59.5486C4.98887 60.3773 5.03092 61.2406 4.9351 62.0425C4.6876 64.1195 4.64949 66.2201 4.55752 68.314L2.85225 67.7165C3.1305 67.3185 3.41475 66.9242 3.7115 66.5402C4.87623 65.0203 5.96764 63.4246 7.18765 61.9063C8.27423 60.5334 9.4654 59.2469 10.7505 58.0582C12.0482 56.8815 13.4459 55.8211 14.9281 54.8876C15.2224 54.7046 15.5171 54.5302 15.8117 54.3687C16.1113 54.2167 16.4111 54.0785 16.7111 53.9541C17.2903 53.7096 17.8973 53.5376 18.5184 53.4414C18.7957 53.3998 18.9741 53.4728 19.0287 53.6133C19.0811 53.7508 19.0176 53.9686 18.7902 54.178C18.4566 54.4551 18.1021 54.7151 17.7513 54.9819C17.402 55.2524 17.0434 55.5124 16.6831 55.7652C16.3947 55.9829 16.091 56.1837 15.7824 56.381L15.5507 56.5278L15.3253 56.6828C15.1757 56.7871 15.0262 56.8914 14.877 56.995L14.8903 57.0251Z" fill="black"/>
<path d="M14.8903 57.0251C13.7466 57.77 12.6621 58.6032 11.6468 59.5164C11.3839 59.7658 11.1171 60.0144 10.8565 60.2694C10.6042 60.5338 10.3551 60.8014 10.1146 61.0751C9.09427 62.2788 8.15901 63.5718 7.23802 64.889L5.86367 66.8801C5.40531 67.5461 4.95129 68.2197 4.47465 68.876L4.46762 68.8857C4.30367 69.1114 4.05668 69.2628 3.78111 69.3065C3.50563 69.3501 3.22407 69.282 2.99837 69.1179C2.85649 69.0138 2.74279 68.8758 2.66729 68.7174C2.59195 68.5581 2.5572 68.383 2.56645 68.2065L2.69727 65.9267C2.82442 63.4687 2.95322 61.0075 3.09835 58.5428C3.24438 56.0783 3.40599 53.6101 3.63379 51.1356C3.71275 50.3876 3.8324 49.6445 3.99224 48.9096C4.13246 48.2101 4.40947 47.7783 4.71767 47.533C5.16902 47.1768 5.53998 47.6464 5.53731 48.6361C5.53044 49.2889 5.48484 49.9407 5.40069 50.5881C5.06785 53.5626 4.92662 56.5562 4.97821 59.5486C4.98887 60.3773 5.03092 61.2406 4.9351 62.0425C4.6876 64.1195 4.64949 66.2201 4.55752 68.314L2.85225 67.7165C3.1305 67.3185 3.41475 66.9242 3.7115 66.5402C4.87623 65.0203 5.96764 63.4246 7.18765 61.9063C8.27423 60.5334 9.4654 59.2469 10.7505 58.0582C12.0482 56.8815 13.4459 55.8211 14.9281 54.8876C15.2224 54.7046 15.5171 54.5302 15.8117 54.3687C16.1113 54.2167 16.4111 54.0785 16.7111 53.9541C17.2903 53.7096 17.8973 53.5376 18.5184 53.4414C18.7957 53.3998 18.9741 53.4728 19.0287 53.6133C19.0811 53.7508 19.0176 53.9686 18.7902 54.178C18.4566 54.4551 18.1021 54.7151 17.7513 54.9819C17.402 55.2524 17.0434 55.5124 16.6831 55.7652C16.3947 55.9829 16.091 56.1837 15.7824 56.381L15.5507 56.5278L15.3253 56.6828C15.1757 56.7871 15.0262 56.8914 14.877 56.995L14.8903 57.0251Z" fill="url(#paint0_linear_125_592)"/>
<path d="M10.3402 50.7915C11.3969 48.869 12.5269 46.9811 13.7612 45.1568C14.9955 43.3281 16.3383 41.5749 17.7825 39.907C19.321 38.1308 20.9869 36.469 22.7668 34.9346C25.1439 32.8638 27.7958 31.1314 30.6471 29.7865C32.0861 29.1142 33.5816 28.5705 35.1164 28.1617C35.9075 27.9438 36.7157 27.7938 37.5322 27.7132C38.4028 27.6246 39.2821 27.6804 40.1345 27.8785C40.6025 27.9901 41.0512 28.1711 41.4654 28.4158C41.9304 28.6879 42.3239 29.0667 42.6135 29.521C42.9101 29.9957 43.0736 30.5415 43.087 31.1012C43.0985 31.6174 43.0056 32.1307 42.8138 32.6102C42.6389 33.0542 42.402 33.4711 42.1101 33.8485C41.8362 34.198 41.5302 34.5211 41.1962 34.8138C40.5833 35.3613 39.926 35.857 39.2312 36.296C37.8585 37.1649 36.375 37.8447 34.8208 38.3174C33.2607 38.7924 31.64 39.0398 30.0092 39.0519C27.9784 39.0729 25.965 38.678 24.0926 37.8915C23.8393 37.7805 23.5933 37.6536 23.3559 37.5118C23.1105 37.3653 22.8776 37.1987 22.6597 37.0137C22.2087 36.6454 21.8251 36.2015 21.5263 35.7016C21.2252 35.1929 21.0229 34.632 20.9299 34.0482C20.8424 33.4915 20.8376 32.9249 20.9157 32.3667C21.0725 31.3307 21.4008 30.328 21.887 29.3997C22.1118 28.9501 22.3601 28.5127 22.6308 28.0893C22.7653 27.879 22.9024 27.671 23.0458 27.468C23.1882 27.2632 23.3311 27.0768 23.4738 26.8804C24.6135 25.3283 25.8539 23.8527 27.1869 22.463C32.5479 16.9187 39.2083 12.8005 46.5638 10.4819C46.8375 10.3898 47.1162 10.3125 47.3941 10.232C47.6727 10.1539 47.9494 10.069 48.2301 9.99773C48.7919 9.85687 49.3517 9.70885 49.9184 9.5931C51.0464 9.33912 52.1847 9.15368 53.3112 8.99535C54.2105 8.87194 55.1165 8.80415 56.0241 8.79233C56.3918 8.79248 56.7185 8.79794 57.008 8.81336C57.2979 8.83523 57.5505 8.86212 57.7693 8.89315C58.4063 8.98351 58.4055 9.11186 57.8735 9.25309C57.7405 9.28839 57.5742 9.32451 57.3762 9.36089C57.1783 9.39529 56.9493 9.43508 56.6893 9.48033C56.43 9.52468 56.1409 9.56944 55.822 9.61477C55.5044 9.66644 55.1584 9.72429 54.7848 9.77935C52.817 10.0861 50.8675 10.5005 48.9451 11.0206C44.5524 12.2082 40.3737 14.0794 36.5626 16.5658C32.7583 19.0286 29.3773 22.0902 26.5505 25.6323C26.3594 25.8775 26.1674 26.1237 25.9745 26.371C25.7892 26.6237 25.6034 26.877 25.417 27.1311C25.227 27.382 25.0556 27.6471 24.8743 27.9047C24.6946 28.1646 24.5124 28.4224 24.3529 28.6762C23.71 29.6496 23.2123 30.7116 22.8756 31.8285C22.6395 32.6642 22.5969 33.5096 22.8392 34.2262C22.9645 34.5861 23.1589 34.9179 23.4116 35.2031C23.5437 35.3516 23.6883 35.4886 23.8437 35.6127C23.9973 35.7416 24.1626 35.8558 24.3377 35.9536C24.5209 36.0573 24.7105 36.1492 24.9054 36.2288L25.549 36.471C25.7686 36.5409 25.9877 36.6134 26.2085 36.6802C26.4326 36.7367 26.6543 36.8018 26.8801 36.8521C27.7865 37.0558 28.7116 37.1652 29.6405 37.1783C31.5116 37.2012 33.371 36.8782 35.1249 36.2259C36.0034 35.899 36.8535 35.5004 37.6667 35.0342C38.4722 34.5777 39.2298 34.0416 39.9284 33.4341L40.1161 33.2633L40.2097 33.1776L40.2915 33.0964C40.3991 32.9899 40.5007 32.8775 40.5958 32.7596C40.779 32.5341 40.932 32.2857 41.0509 32.0206C41.1591 31.782 41.2225 31.5256 41.2377 31.2641C41.2447 31.1482 41.2367 31.0319 41.2137 30.9181C41.1947 30.8105 41.1601 30.7062 41.111 30.6086C41.064 30.5086 41.0028 30.416 40.9292 30.3335C40.8515 30.2427 40.7634 30.1614 40.6667 30.091C40.4419 29.9323 40.1934 29.81 39.9306 29.7285C39.6349 29.6359 39.3306 29.5737 39.0224 29.5429C38.6994 29.5092 38.3743 29.4994 38.0498 29.5135C37.3689 29.5495 36.6927 29.6481 36.0298 29.8078C35.6888 29.8859 35.3468 29.9749 35.0026 30.072C34.6616 30.1692 34.3225 30.273 33.9853 30.3832C32.6334 30.8347 31.3183 31.3898 30.0517 32.0433C27.7797 33.22 25.6517 34.656 23.7103 36.3225C21.7571 37.9996 19.9575 39.8477 18.3332 41.8449C17.5161 42.8434 16.7344 43.871 15.9881 44.928C15.617 45.4571 15.2507 45.9895 14.9015 46.5347L14.3742 47.3501L13.8633 48.1768C13.5181 48.7251 13.2005 49.2909 12.869 49.8479C12.5538 50.4151 12.2266 50.9756 11.9234 51.5503C11.3001 52.6896 10.716 53.8522 10.14 55.019C8.31903 58.7527 6.67458 62.3249 4.94697 65.401C4.15404 66.8154 3.77509 66.5457 4.36892 64.767C5.23926 62.2614 6.22191 59.6543 7.31271 57.0947C8.20563 54.9899 9.26385 52.8833 10.3585 50.8253C10.3519 50.8145 10.3461 50.8039 10.3402 50.7915Z" fill="black"/>
<path d="M10.3402 50.7915C11.3969 48.869 12.5269 46.9811 13.7612 45.1568C14.9955 43.3281 16.3383 41.5749 17.7825 39.907C19.321 38.1308 20.9869 36.469 22.7668 34.9346C25.1439 32.8638 27.7958 31.1314 30.6471 29.7865C32.0861 29.1142 33.5816 28.5705 35.1164 28.1617C35.9075 27.9438 36.7157 27.7938 37.5322 27.7132C38.4028 27.6246 39.2821 27.6804 40.1345 27.8785C40.6025 27.9901 41.0512 28.1711 41.4654 28.4158C41.9304 28.6879 42.3239 29.0667 42.6135 29.521C42.9101 29.9957 43.0736 30.5415 43.087 31.1012C43.0985 31.6174 43.0056 32.1307 42.8138 32.6102C42.6389 33.0542 42.402 33.4711 42.1101 33.8485C41.8362 34.198 41.5302 34.5211 41.1962 34.8138C40.5833 35.3613 39.926 35.857 39.2312 36.296C37.8585 37.1649 36.375 37.8447 34.8208 38.3174C33.2607 38.7924 31.64 39.0398 30.0092 39.0519C27.9784 39.0729 25.965 38.678 24.0926 37.8915C23.8393 37.7805 23.5933 37.6536 23.3559 37.5118C23.1105 37.3653 22.8776 37.1987 22.6597 37.0137C22.2087 36.6454 21.8251 36.2015 21.5263 35.7016C21.2252 35.1929 21.0229 34.632 20.9299 34.0482C20.8424 33.4915 20.8376 32.9249 20.9157 32.3667C21.0725 31.3307 21.4008 30.328 21.887 29.3997C22.1118 28.9501 22.3601 28.5127 22.6308 28.0893C22.7653 27.879 22.9024 27.671 23.0458 27.468C23.1882 27.2632 23.3311 27.0768 23.4738 26.8804C24.6135 25.3283 25.8539 23.8527 27.1869 22.463C32.5479 16.9187 39.2083 12.8005 46.5638 10.4819C46.8375 10.3898 47.1162 10.3125 47.3941 10.232C47.6727 10.1539 47.9494 10.069 48.2301 9.99773C48.7919 9.85687 49.3517 9.70885 49.9184 9.5931C51.0464 9.33912 52.1847 9.15368 53.3112 8.99535C54.2105 8.87194 55.1165 8.80415 56.0241 8.79233C56.3918 8.79248 56.7185 8.79794 57.008 8.81336C57.2979 8.83523 57.5505 8.86212 57.7693 8.89315C58.4063 8.98351 58.4055 9.11186 57.8735 9.25309C57.7405 9.28839 57.5742 9.32451 57.3762 9.36089C57.1783 9.39529 56.9493 9.43508 56.6893 9.48033C56.43 9.52468 56.1409 9.56944 55.822 9.61477C55.5044 9.66644 55.1584 9.72429 54.7848 9.77935C52.817 10.0861 50.8675 10.5005 48.9451 11.0206C44.5524 12.2082 40.3737 14.0794 36.5626 16.5658C32.7583 19.0286 29.3773 22.0902 26.5505 25.6323C26.3594 25.8775 26.1674 26.1237 25.9745 26.371C25.7892 26.6237 25.6034 26.877 25.417 27.1311C25.227 27.382 25.0556 27.6471 24.8743 27.9047C24.6946 28.1646 24.5124 28.4224 24.3529 28.6762C23.71 29.6496 23.2123 30.7116 22.8756 31.8285C22.6395 32.6642 22.5969 33.5096 22.8392 34.2262C22.9645 34.5861 23.1589 34.9179 23.4116 35.2031C23.5437 35.3516 23.6883 35.4886 23.8437 35.6127C23.9973 35.7416 24.1626 35.8558 24.3377 35.9536C24.5209 36.0573 24.7105 36.1492 24.9054 36.2288L25.549 36.471C25.7686 36.5409 25.9877 36.6134 26.2085 36.6802C26.4326 36.7367 26.6543 36.8018 26.8801 36.8521C27.7865 37.0558 28.7116 37.1652 29.6405 37.1783C31.5116 37.2012 33.371 36.8782 35.1249 36.2259C36.0034 35.899 36.8535 35.5004 37.6667 35.0342C38.4722 34.5777 39.2298 34.0416 39.9284 33.4341L40.1161 33.2633L40.2097 33.1776L40.2915 33.0964C40.3991 32.9899 40.5007 32.8775 40.5958 32.7596C40.779 32.5341 40.932 32.2857 41.0509 32.0206C41.1591 31.782 41.2225 31.5256 41.2377 31.2641C41.2447 31.1482 41.2367 31.0319 41.2137 30.9181C41.1947 30.8105 41.1601 30.7062 41.111 30.6086C41.064 30.5086 41.0028 30.416 40.9292 30.3335C40.8515 30.2427 40.7634 30.1614 40.6667 30.091C40.4419 29.9323 40.1934 29.81 39.9306 29.7285C39.6349 29.6359 39.3306 29.5737 39.0224 29.5429C38.6994 29.5092 38.3743 29.4994 38.0498 29.5135C37.3689 29.5495 36.6927 29.6481 36.0298 29.8078C35.6888 29.8859 35.3468 29.9749 35.0026 30.072C34.6616 30.1692 34.3225 30.273 33.9853 30.3832C32.6334 30.8347 31.3183 31.3898 30.0517 32.0433C27.7797 33.22 25.6517 34.656 23.7103 36.3225C21.7571 37.9996 19.9575 39.8477 18.3332 41.8449C17.5161 42.8434 16.7344 43.871 15.9881 44.928C15.617 45.4571 15.2507 45.9895 14.9015 46.5347L14.3742 47.3501L13.8633 48.1768C13.5181 48.7251 13.2005 49.2909 12.869 49.8479C12.5538 50.4151 12.2266 50.9756 11.9234 51.5503C11.3001 52.6896 10.716 53.8522 10.14 55.019C8.31903 58.7527 6.67458 62.3249 4.94697 65.401C4.15404 66.8154 3.77509 66.5457 4.36892 64.767C5.23926 62.2614 6.22191 59.6543 7.31271 57.0947C8.20563 54.9899 9.26385 52.8833 10.3585 50.8253C10.3519 50.8145 10.3461 50.8039 10.3402 50.7915Z" fill="url(#paint1_linear_125_592)"/>
<defs>
<linearGradient id="paint0_linear_125_592" x1="7.19394" y1="79.311" x2="-10.0982" y2="60.5877" gradientUnits="userSpaceOnUse">
<stop stop-color="#1355FF"/>
<stop offset="1" stop-color="#6C95FF"/>
</linearGradient>
<linearGradient id="paint1_linear_125_592" x1="22.4021" y1="98.4104" x2="-29.0863" y2="49.6205" gradientUnits="userSpaceOnUse">
<stop stop-color="#1355FF"/>
<stop offset="1" stop-color="#6C95FF"/>
</linearGradient>
</defs>
</svg>
