<svg width="32" height="32" viewBox="0 0 32 32" fill="none" xmlns="http://www.w3.org/2000/svg">
<g id="Group 1706">
<path id="Vector" fill-rule="evenodd" clip-rule="evenodd" d="M25.4 3.50317C28.9035 6.38042 31.0307 10.6334 31.0307 15.512C31.0307 24.0188 24.1488 31.0237 15.515 31.0237C14.8892 31.0237 14.1385 30.8985 13.5131 30.8985C16.1408 29.7725 18.6432 28.1465 20.6452 26.1451C24.5241 22.2671 26.7763 17.0135 26.7763 11.134C26.7763 8.50699 26.2758 5.8802 25.3998 3.5035L25.4 3.50317Z" fill="#5A5A5A"/>
<path id="Vector_2" fill-rule="evenodd" clip-rule="evenodd" d="M15.5154 0C18.7686 0 21.7719 1.00071 24.2744 2.62701C25.5256 5.25402 26.1514 8.13097 26.1514 11.1338C26.1514 16.763 23.774 21.8915 20.1452 25.6442C17.893 27.8959 15.1403 29.5222 12.137 30.6479C5.12979 29.0216 0 22.8917 0 15.5118C0 6.8801 7.00719 0.000149258 15.5157 0.000149258L15.5154 0ZM23.7737 3.12741C21.2712 1.50111 18.5185 0.625585 15.5154 0.625585C7.38219 0.625585 0.625451 7.25552 0.625451 15.5117C0.625451 22.3918 5.38009 28.2711 12.0117 29.8972C14.8897 28.8965 17.5171 27.2702 19.6442 25.1438C23.3978 21.516 25.3998 16.637 25.5251 11.3839V10.8835C25.3998 8.25649 24.8993 5.6297 23.7734 3.12729L23.7737 3.12741Z" fill="#5A5A5A"/>
<path id="Vector_3" fill-rule="evenodd" clip-rule="evenodd" d="M10.8855 10.0079C10.8855 9.63249 10.8855 9.25735 10.7603 9.00719V8.38159C8.75833 9.25734 7.00661 10.5083 5.37989 12.0094C3.75317 13.6357 2.37697 15.7621 1.62622 18.1389C2.37697 16.5126 3.37794 15.1368 4.62914 13.8858C6.38086 12.1346 8.50811 10.7584 10.8856 10.0079L10.8855 10.0079Z" fill="#5A5A5A"/>
<path id="Vector_4" fill-rule="evenodd" clip-rule="evenodd" d="M9.38494 2.6272C4.6303 4.87886 1.37671 9.75745 1.37671 15.5116V16.6375C2.25268 14.761 3.37866 13.0098 4.88015 11.5087C6.50687 9.88242 8.50889 8.50658 10.7611 7.75603C10.5108 6.00476 10.0103 4.2535 9.38457 2.6272H9.38494Z" fill="#5A5A5A"/>
<path id="Vector_5" fill-rule="evenodd" clip-rule="evenodd" d="M11.5114 8.13136V8.88211C11.5114 9.13236 11.5114 9.38261 11.6366 9.75809C13.0131 9.25759 14.3893 9.00734 16.016 9.00734C16.016 8.63182 15.8908 8.25659 15.8908 8.00636V7.25562C14.3893 7.38088 12.8878 7.63113 11.5114 8.13159V8.13136Z" fill="#5A5A5A"/>
<path id="Vector_6" fill-rule="evenodd" clip-rule="evenodd" d="M14.3898 1.25122C12.8883 1.37646 11.3869 1.75158 10.1356 2.3772C10.7614 4.0035 11.1366 5.75476 11.3868 7.50603C12.7633 7.00567 14.2648 6.63029 15.7662 6.63029C15.516 4.75375 15.1405 3.00249 14.3897 1.2513L14.3898 1.25122Z" fill="#5A5A5A"/>
<path id="Vector_7" fill-rule="evenodd" clip-rule="evenodd" d="M16.6411 7.25562V7.88138V9.00765C17.8923 9.00765 19.1436 9.13292 20.2699 9.38317V8.63242C20.2699 8.38217 20.1446 8.00665 20.1446 7.63144C19.0183 7.3812 18.0173 7.25593 16.8914 7.25593H16.6411L16.6411 7.25562Z" fill="#5A5A5A"/>
<path id="Vector_8" fill-rule="evenodd" clip-rule="evenodd" d="M18.5183 1.62639C17.5174 1.37621 16.5164 1.25098 15.5154 1.25098H15.1399C15.7657 3.00224 16.2662 4.75351 16.5164 6.50478H16.8919C17.8929 6.50478 19.0191 6.63001 20.0201 6.88019C19.7699 5.00366 19.2694 3.2524 18.5186 1.62639H18.5183Z" fill="#5A5A5A"/>
<path id="Vector_9" fill-rule="evenodd" clip-rule="evenodd" d="M20.8958 7.75562C20.8958 8.00586 21.021 8.38138 21.021 8.63159V9.50756C21.7718 9.75781 22.6477 10.0081 23.3985 10.3835C23.774 10.5088 24.1492 10.759 24.5248 11.0093C24.65 11.0093 24.775 11.0093 24.775 11.1346V10.8843V9.38282C24.6497 9.25755 24.5248 9.25755 24.5248 9.13257C24.1492 9.00731 23.6488 8.75706 23.2736 8.63208C22.5228 8.25656 21.7721 8.00632 20.8961 7.75611L20.8958 7.75562Z" fill="#5A5A5A"/>
<path id="Vector_10" fill-rule="evenodd" clip-rule="evenodd" d="M23.273 3.50249C22.0218 2.75193 20.7705 2.12635 19.394 1.75122C20.1448 3.50249 20.5203 5.25375 20.7705 7.00502C21.7715 7.2552 22.6476 7.50538 23.6485 8.00573C23.8988 8.13097 24.2743 8.25591 24.6495 8.50609C24.3993 6.75483 23.8988 5.12853 23.273 3.50246V3.50249Z" fill="#5A5A5A"/>
</g>
</svg>
